<svg xmlns="http://www.w3.org/2000/svg" version="1.1" xmlns:xlink="http://www.w3.org/1999/xlink" xmlns:svgjs="http://svgjs.dev/svgjs" width="1500" height="1500" viewBox="0 0 1500 1500"><rect width="1500" height="1500" fill="#ffffff"></rect><g transform="matrix(0.6666666666666666,0,0,0.6666666666666666,249.78425655976667,249.78425655976673)"><svg viewBox="0 0 343 343" data-background-color="#000000" preserveAspectRatio="xMidYMid meet" height="1500" width="1500" xmlns="http://www.w3.org/2000/svg" xmlns:xlink="http://www.w3.org/1999/xlink"><g id="tight-bounds" transform="matrix(1,0,0,1,0.0740000000000407,0.07400000000001228)"><svg viewBox="0 0 342.85155851775386 342.85155851775386" height="342.85155851775386" width="342.85155851775386"><rect width="342.852" height="342.852" fill="#000000" mask="url(#7c36f1ff-e7e2-4712-a2aa-bc6221526b51)" data-fill-palette-color="tertiary"></rect><g><svg></svg></g><g><svg viewBox="0 0 342.85155851775386 342.85155851775386" height="342.85155851775386" width="342.85155851775386"><g><path d="M0 171.426c0-94.676 76.75-171.426 171.426-171.426 94.676 0 171.426 76.75 171.426 171.426 0 94.676-76.75 171.426-171.426 171.426-94.676 0-171.426-76.75-171.426-171.426zM171.426 339.102c92.605 0 167.676-75.071 167.676-167.676 0-92.605-75.071-167.676-167.676-167.676-92.605 0-167.676 75.071-167.676 167.676 0 92.605 75.071 167.676 167.676 167.676z" data-fill-palette-color="tertiary" fill="#000000" stroke="transparent"></path><ellipse rx="164.56874808852186" ry="164.56874808852186" cx="171.42577925887693" cy="171.42577925887693" fill="#000000" stroke="transparent" stroke-width="0" fill-opacity="1" data-fill-palette-color="tertiary"></ellipse></g><g transform="matrix(1,0,0,1,64.84655864529837,115.75841959186688)"><svg viewBox="0 0 213.1584412271571 111.3347193340201" height="111.3347193340201" width="213.1584412271571"><g><svg viewBox="0 0 213.1584412271571 111.3347193340201" height="111.3347193340201" width="213.1584412271571"><g><svg viewBox="0 0 213.1584412271571 111.3347193340201" height="111.3347193340201" width="213.1584412271571"><g><svg viewBox="0 0 213.1584412271571 111.3347193340201" height="111.3347193340201" width="213.1584412271571"><g id="textblocktransform"><svg viewBox="0 0 213.1584412271571 111.3347193340201" height="111.3347193340201" width="213.1584412271571" id="textblock"><g><svg viewBox="0 0 213.1584412271571 88.4180337916553" height="88.4180337916553" width="213.1584412271571"><g transform="matrix(1,0,0,1,0,0)"><svg width="213.1584412271571" viewBox="3.999999999999999 -39.69999999999999 243.3 97.15" height="88.4180337916553" data-palette-color="#0729ad"><svg></svg><svg></svg><g class="wordmark-text-0" data-fill-palette-color="quaternary" id="text-0"><path d="M14.85-5h6.8c1.233 0 2.1-0.35 2.6-1.05 0.5-0.7 0.75-1.483 0.75-2.35v0-22.9c0-0.833-0.25-1.6-0.75-2.3-0.5-0.7-1.367-1.05-2.6-1.05v0h-11.7l-0.05 32.6c0 0.733-0.283 1.317-0.85 1.75-0.567 0.433-1.267 0.65-2.1 0.65v0c-1.967 0-2.95-0.8-2.95-2.4v0-34.65c0-1.2 0.31-2 0.93-2.4 0.613-0.4 1.353-0.6 2.22-0.6v0h15.75c0.867 0 1.767 0.183 2.7 0.55 0.933 0.367 1.833 0.833 2.7 1.4v0h-0.05c0.867 0.633 1.533 1.46 2 2.48 0.467 1.013 0.7 2.187 0.7 3.52v0 23.75c0 2.7-0.9 4.717-2.7 6.05v0c-0.867 0.633-1.757 1.123-2.67 1.47-0.92 0.353-1.813 0.53-2.68 0.53v0h-8.4c-0.567 0-1.007-0.233-1.32-0.7-0.32-0.467-0.48-1.083-0.48-1.85v0c0-1.667 0.717-2.5 2.15-2.5zM62.1-28v20.05c0 1.333-0.233 2.517-0.7 3.55-0.467 1.033-1.133 1.867-2 2.5v0h0.05c-0.833 0.567-1.717 1.023-2.65 1.37-0.933 0.353-1.833 0.53-2.7 0.53v0h-8.05c-0.833 0-1.723-0.177-2.67-0.53-0.953-0.347-1.847-0.803-2.68-1.37v0h0.05c-0.867-0.633-1.533-1.467-2-2.5-0.467-1.033-0.7-2.217-0.7-3.55v0-20.05c0-1.6 0.917-2.4 2.75-2.4v0c1.833 0 2.75 0.8 2.75 2.4v0 19.65c0 0.933 0.233 1.75 0.7 2.45v0c0.433 0.8 1.333 1.2 2.7 1.2v0h6.25c1.333 0 2.217-0.4 2.65-1.2v0l-0.05 0.05c0.533-0.8 0.8-1.633 0.8-2.5v0-19.65c0-1.6 0.917-2.4 2.75-2.4v0c1.833 0 2.75 0.8 2.75 2.4zM79.05-25.4h-4.15v18.2c0 0.867 0.183 1.533 0.55 2 0.367 0.467 1.15 0.7 2.35 0.7v0h1.3c1.3 0 1.917 0.767 1.85 2.3v0c0 1.567-0.617 2.35-1.85 2.35v0h-1.65c-1.067 0-2.067-0.143-3-0.43-0.933-0.28-1.833-0.687-2.7-1.22v0 0.05c-1.633-1.067-2.45-2.967-2.45-5.7v0-18.25h-1.95c-1.2 0-1.833-0.783-1.9-2.35v0c0-1.567 0.633-2.35 1.9-2.35v0h1.95v-5.35c0-1.6 0.95-2.4 2.85-2.4v0c1.833 0 2.75 0.8 2.75 2.4v0 5.35h4.15c1.3 0 1.917 0.783 1.85 2.35v0c0 1.567-0.617 2.35-1.85 2.35zM96-25.4h-4.15v18.2c0 0.867 0.183 1.533 0.55 2 0.367 0.467 1.15 0.7 2.35 0.7v0h1.3c1.3 0 1.917 0.767 1.85 2.3v0c0 1.567-0.617 2.35-1.85 2.35v0h-1.65c-1.067 0-2.067-0.143-3-0.43-0.933-0.28-1.833-0.687-2.7-1.22v0 0.05c-1.633-1.067-2.45-2.967-2.45-5.7v0-18.25h-1.95c-1.2 0-1.833-0.783-1.9-2.35v0c0-1.567 0.633-2.35 1.9-2.35v0h1.95v-5.35c0-1.6 0.95-2.4 2.85-2.4v0c1.833 0 2.75 0.8 2.75 2.4v0 5.35h4.15c1.3 0 1.917 0.783 1.85 2.35v0c0 1.567-0.617 2.35-1.85 2.35zM116.35 0h-6.55c-1.033 0-2.017-0.143-2.95-0.43-0.933-0.28-1.833-0.687-2.7-1.22v0 0.05c-1.633-1.033-2.45-2.933-2.45-5.7v0-2.45c0-1.367 0.24-2.56 0.72-3.58 0.487-1.013 1.163-1.82 2.03-2.42v0h-0.05c0.833-0.567 1.717-0.993 2.65-1.28 0.933-0.28 1.833-0.42 2.7-0.42v0h11.05v-4.65c0-0.833-0.257-1.593-0.77-2.28-0.52-0.68-1.397-1.02-2.63-1.02v0h-5.85c-1.267 0-2.14 0.307-2.62 0.92-0.487 0.62-0.73 1.347-0.73 2.18v0 0.4c0 1.733-0.933 2.6-2.8 2.6v0c-1.867 0-2.8-0.867-2.8-2.6v0-0.45c0-1.367 0.243-2.517 0.73-3.45 0.48-0.933 1.137-1.717 1.97-2.35v0h-0.05c0.867-0.567 1.777-1.033 2.73-1.4 0.947-0.367 1.853-0.55 2.72-0.55v0h7.6c0.833 0 1.727 0.183 2.68 0.55 0.947 0.367 1.837 0.833 2.67 1.4v0h-0.05c0.867 0.633 1.533 1.457 2 2.47 0.467 1.02 0.7 2.197 0.7 3.53v0 20.05c0 1.6-0.917 2.4-2.75 2.4v0c-0.367 0-0.707-0.017-1.02-0.05-0.32-0.033-0.603-0.127-0.85-0.28-0.253-0.147-0.453-0.363-0.6-0.65-0.153-0.28-0.23-0.653-0.23-1.12v0l-0.05-10.95h-10.1c-0.733 0-1.3 0.083-1.7 0.25-0.4 0.167-0.717 0.433-0.95 0.8v0c-0.267 0.567-0.457 1.007-0.57 1.32-0.12 0.32-0.18 0.68-0.18 1.08v0 1.95c0 0.867 0.26 1.523 0.78 1.97 0.513 0.453 1.403 0.68 2.67 0.68v0h5.6c1.233 0 1.85 0.783 1.85 2.35v0c0 0.667-0.15 1.223-0.45 1.67-0.3 0.453-0.767 0.68-1.4 0.68z" fill="#ffffff" fill-rule="nonzero" stroke="none" stroke-width="1" stroke-linecap="butt" stroke-linejoin="miter" stroke-miterlimit="10" stroke-dasharray="" stroke-dashoffset="0" font-family="none" font-weight="none" font-size="none" text-anchor="none" style="mix-blend-mode: normal" data-fill-palette-color="quaternary" opacity="1"></path><path d="M25.5 50.5h-18.3c-1.233 0-2.067-0.317-2.5-0.95-0.433-0.633-0.65-1.333-0.65-2.1v0-33.7c0-0.767 0.217-1.46 0.65-2.08 0.433-0.613 1.267-0.92 2.5-0.92v0h17.4c1.233 0 1.883 0.833 1.95 2.5v0c0.067 1.7-0.583 2.55-1.95 2.55v0h-14.65v29.65h15.55c1.233 0 1.867 0.817 1.9 2.45v0c0.067 1.733-0.567 2.6-1.9 2.6zM22.75 29.8v0c0 1.167-0.407 2.15-1.22 2.95-0.82 0.8-1.813 1.2-2.98 1.2v0c-1.133 0-2.1-0.4-2.9-1.2-0.8-0.8-1.2-1.783-1.2-2.95v0c0-1.167 0.4-2.15 1.2-2.95 0.8-0.8 1.767-1.2 2.9-1.2v0c1.167 0 2.16 0.4 2.98 1.2 0.813 0.8 1.22 1.783 1.22 2.95zM37.85 28.7v19.65c0 1.6-0.917 2.4-2.75 2.4v0c-1.833 0-2.75-0.8-2.75-2.4v0-20.1c0-1.367 0.217-2.55 0.65-3.55 0.433-1 1.117-1.817 2.05-2.45v0c1.767-1.267 3.533-1.9 5.3-1.9v0h8.05c1.7 0 3.467 0.633 5.3 1.9v0c1.8 1.267 2.7 3.267 2.7 6v0 20.1c0 1.6-0.917 2.4-2.75 2.4v0c-1.833 0-2.75-0.8-2.75-2.4v0-19.65c0-0.867-0.267-1.7-0.8-2.5v0l0.05 0.05c-0.433-0.8-1.317-1.2-2.65-1.2v0h-6.25c-1.367 0-2.267 0.4-2.7 1.2v0c-0.467 0.7-0.7 1.517-0.7 2.45zM73.55 25.05h-4.15v18.2c0 0.867 0.183 1.533 0.55 2 0.367 0.467 1.15 0.7 2.35 0.7v0h1.3c1.3 0 1.917 0.767 1.85 2.3v0c0 1.567-0.617 2.35-1.85 2.35v0h-1.65c-1.067 0-2.067-0.143-3-0.43-0.933-0.28-1.833-0.687-2.7-1.22v0 0.05c-1.633-1.067-2.45-2.967-2.45-5.7v0-18.25h-1.95c-1.2 0-1.833-0.783-1.9-2.35v0c0-1.567 0.633-2.35 1.9-2.35v0h1.95v-5.35c0-1.6 0.95-2.4 2.85-2.4v0c1.833 0 2.75 0.8 2.75 2.4v0 5.35h4.15c1.3 0 1.917 0.783 1.85 2.35v0c0 1.567-0.617 2.35-1.85 2.35zM85.3 28.3v14.15c0 0.8 0.26 1.55 0.78 2.25 0.513 0.7 1.387 1.05 2.62 1.05v0h6.25c1.233 0 2.11-0.31 2.63-0.93 0.513-0.613 0.77-1.32 0.77-2.12v0-0.55c0-1.567 0.917-2.35 2.75-2.35v0c1.833 0 2.75 0.783 2.75 2.35v0 0.6c0 1.4-0.227 2.55-0.68 3.45-0.447 0.9-1.12 1.683-2.02 2.35v0c-1.767 1.267-3.533 1.9-5.3 1.9v0h-8.4c-1.767 0-3.483-0.633-5.15-1.9v0c-0.8-0.667-1.417-1.507-1.85-2.52-0.433-1.02-0.65-2.197-0.65-3.53v0-14.25c0-2.7 0.833-4.7 2.5-6v0c0.833-0.6 1.693-1.077 2.58-1.43 0.88-0.347 1.737-0.52 2.57-0.52v0h8.4c0.8 0 1.683 0.157 2.65 0.47 0.967 0.32 1.867 0.747 2.7 1.28v0c0.8 0.567 1.443 1.35 1.93 2.35 0.48 1 0.72 2.183 0.72 3.55v0 6.75c0 0.767-0.227 1.45-0.68 2.05-0.447 0.6-1.27 0.9-2.47 0.9v0h-10.8c-1.2 0-1.833-0.783-1.9-2.35v0c0-1.567 0.633-2.35 1.9-2.35v0h8.5l-0.05-4.65c0-0.833-0.257-1.593-0.77-2.28-0.52-0.68-1.397-1.02-2.63-1.02v0h-6.25c-1.233 0-2.107 0.34-2.62 1.02-0.52 0.687-0.78 1.447-0.78 2.28zM115.6 27.7v20.65c0 1.6-0.917 2.4-2.75 2.4v0c-1.9 0-2.85-0.8-2.85-2.4v0-20.7c0-2.733 0.817-4.633 2.45-5.7v0c1.633-1.067 3.517-1.6 5.65-1.6v0h5.7c1.233 0 1.85 0.783 1.85 2.35v0c0.067 1.567-0.55 2.35-1.85 2.35v0h-5.3c-1.2 0-1.983 0.233-2.35 0.7-0.367 0.467-0.55 1.117-0.55 1.95zM145.95 50.45h-5.95c-1.2 0-1.833-0.783-1.9-2.35v0c0-1.567 0.633-2.35 1.9-2.35v0h5.05c1.233 0 2.11-0.35 2.63-1.05 0.513-0.7 0.77-1.45 0.77-2.25v0-14.1c0-0.833-0.257-1.61-0.77-2.33-0.52-0.713-1.413-1.037-2.68-0.97v0h-9.6v30.05c0 1.567-0.917 2.35-2.75 2.35v0c-1.833 0-2.75-0.8-2.75-2.4v0-31.75c0-1.167 0.3-1.95 0.9-2.35 0.6-0.4 1.333-0.6 2.2-0.6v0h12.95c0.867 0 1.743 0.15 2.63 0.45 0.88 0.3 1.787 0.717 2.72 1.25v0c0.8 0.567 1.443 1.357 1.93 2.37 0.48 1.02 0.72 2.213 0.72 3.58v0 14.8c0 2.733-0.883 4.683-2.65 5.85v0c-1.867 1.2-3.65 1.8-5.35 1.8zM165.6 27.7v20.65c0 1.6-0.917 2.4-2.75 2.4v0c-1.9 0-2.85-0.8-2.85-2.4v0-20.7c0-2.733 0.817-4.633 2.45-5.7v0c1.633-1.067 3.517-1.6 5.65-1.6v0h5.7c1.233 0 1.85 0.783 1.85 2.35v0c0.067 1.567-0.55 2.35-1.85 2.35v0h-5.3c-1.2 0-1.983 0.233-2.35 0.7-0.367 0.467-0.55 1.117-0.55 1.95zM185.55 22.55v25.8c0 1.6-0.917 2.4-2.75 2.4v0c-1.867 0-2.8-0.8-2.8-2.4v0-25.8c0-1.6 0.933-2.4 2.8-2.4v0c1.833 0 2.75 0.8 2.75 2.4zM186.6 13.85v0c0 1.067-0.367 1.967-1.1 2.7-0.733 0.733-1.633 1.1-2.7 1.1v0c-1.067 0-1.973-0.367-2.72-1.1-0.753-0.733-1.13-1.633-1.13-2.7v0c0-1.1 0.377-2.017 1.13-2.75 0.747-0.733 1.653-1.1 2.72-1.1v0c1.067 0 1.967 0.367 2.7 1.1 0.733 0.733 1.1 1.65 1.1 2.75zM201.4 32.95h7.35c0.833 0 1.727 0.19 2.68 0.57 0.947 0.387 1.837 0.863 2.67 1.43v0h-0.05c0.867 0.633 1.533 1.45 2 2.45 0.467 1 0.7 2.2 0.7 3.6v0 1.5c0 2.733-0.9 4.75-2.7 6.05v0c-0.867 0.667-1.75 1.15-2.65 1.45-0.9 0.3-1.783 0.45-2.65 0.45v0h-8.5c-0.867 0-1.75-0.15-2.65-0.45-0.9-0.3-1.783-0.783-2.65-1.45v0c-1.8-1.267-2.7-3.283-2.7-6.05v0-0.6c0-1.433 0.917-2.133 2.75-2.1v0c1.867 0 2.8 0.7 2.8 2.1v0 0.55c0 0.8 0.25 1.55 0.75 2.25 0.5 0.7 1.383 1.05 2.65 1.05v0h6.6c1.267 0 2.15-0.35 2.65-1.05 0.5-0.7 0.75-1.45 0.75-2.25v0-1.4c0-0.433-0.057-0.85-0.17-1.25-0.12-0.4-0.313-0.76-0.58-1.08-0.267-0.313-0.617-0.57-1.05-0.77-0.433-0.2-0.967-0.3-1.6-0.3v0h-7.3c-1.7 0-3.483-0.6-5.35-1.8v0c-1.767-1.133-2.65-3.083-2.65-5.85v0-1.7c0-1.333 0.233-2.51 0.7-3.53 0.467-1.013 1.133-1.837 2-2.47v0h-0.05c0.833-0.567 1.717-1.033 2.65-1.4 0.933-0.367 1.833-0.55 2.7-0.55v0h8c0.867 0 1.76 0.183 2.68 0.55 0.913 0.367 1.803 0.833 2.67 1.4v0h-0.05c0.867 0.633 1.533 1.457 2 2.47 0.467 1.02 0.7 2.197 0.7 3.53v0 0.45c0 0.7-0.233 1.207-0.7 1.52-0.467 0.32-1.15 0.497-2.05 0.53v0c-1.833 0.033-2.75-0.65-2.75-2.05v0-0.4c0-0.833-0.257-1.593-0.77-2.28-0.52-0.68-1.397-1.02-2.63-1.02v0h-6.2c-1.233 0-2.107 0.34-2.62 1.02-0.52 0.687-0.78 1.447-0.78 2.28v0 1.2c0 0.867 0.26 1.65 0.78 2.35 0.513 0.7 1.387 1.05 2.62 1.05zM228.75 28.3v14.15c0 0.8 0.26 1.55 0.78 2.25 0.513 0.7 1.387 1.05 2.62 1.05v0h6.25c1.233 0 2.11-0.31 2.63-0.93 0.513-0.613 0.77-1.32 0.77-2.12v0-0.55c0-1.567 0.917-2.35 2.75-2.35v0c1.833 0 2.75 0.783 2.75 2.35v0 0.6c0 1.4-0.223 2.55-0.67 3.45-0.453 0.9-1.13 1.683-2.03 2.35v0c-1.767 1.267-3.533 1.9-5.3 1.9v0h-8.4c-1.767 0-3.483-0.633-5.15-1.9v0c-0.8-0.667-1.417-1.507-1.85-2.52-0.433-1.02-0.65-2.197-0.65-3.53v0-14.25c0-2.7 0.833-4.7 2.5-6v0c0.833-0.6 1.693-1.077 2.58-1.43 0.88-0.347 1.737-0.52 2.57-0.52v0h8.4c0.8 0 1.683 0.157 2.65 0.47 0.967 0.32 1.867 0.747 2.7 1.28v0c0.8 0.567 1.443 1.35 1.93 2.35 0.48 1 0.72 2.183 0.72 3.55v0 6.75c0 0.767-0.223 1.45-0.67 2.05-0.453 0.6-1.28 0.9-2.48 0.9v0h-10.8c-1.2 0-1.833-0.783-1.9-2.35v0c0-1.567 0.633-2.35 1.9-2.35v0h8.5l-0.05-4.65c0-0.833-0.257-1.593-0.77-2.28-0.52-0.68-1.397-1.02-2.63-1.02v0h-6.25c-1.233 0-2.107 0.34-2.62 1.02-0.52 0.687-0.78 1.447-0.78 2.28z" fill="#ffffff" fill-rule="nonzero" stroke="none" stroke-width="1" stroke-linecap="butt" stroke-linejoin="miter" stroke-miterlimit="10" stroke-dasharray="" stroke-dashoffset="0" font-family="none" font-weight="none" font-size="none" text-anchor="none" style="mix-blend-mode: normal" data-fill-palette-color="quaternary" opacity="1"></path></g></svg></g></svg></g><g transform="matrix(1,0,0,1,0,98.23410593356981)"><svg viewBox="0 0 198.45050878248327 13.100613400450275" height="13.100613400450275" width="198.45050878248327"><g transform="matrix(1,0,0,1,0,0)"><svg width="198.45050878248327" viewBox="2.65 -40 771.7 50.95" height="13.100613400450275" data-palette-color="#0729ad"><path d="M2.65-34.6L9.75-34.6 9.75 0 2.65 0 2.65-34.6ZM27.9-27.3Q30.75-27.3 32.4-25.25 34.05-23.2 34.05-19.75L34.05-19.75 34.05 0 27.25 0 27.25-19Q27.25-20.65 26.8-21.35 26.35-22.05 25.45-22.05L25.45-22.05Q23.65-22.05 21.75-18.45L21.75-18.45 21.75 0 14.95 0 14.95-26.5 20.9-26.5 21.4-23.15Q22.7-25.2 24.25-26.25 25.8-27.3 27.9-27.3L27.9-27.3ZM50.6-5.4L52.9-1.2Q51.65-0.2 50.07 0.3 48.5 0.8 46.9 0.8L46.9 0.8Q43.25 0.8 41.4-1.28 39.55-3.35 39.55-6.9L39.55-6.9 39.55-21.65 36.6-21.65 36.6-26.5 39.55-26.5 39.55-32.3 46.35-33.15 46.35-26.5 51.3-26.5 50.65-21.65 46.35-21.65 46.35-6.95Q46.35-4.65 48.25-4.65L48.25-4.65Q48.9-4.65 49.4-4.83 49.9-5 50.6-5.4L50.6-5.4ZM74.54-13.85Q74.54-13.3 74.39-11.2L74.39-11.2 60.84-11.2Q61.04-7.3 62.22-5.8 63.39-4.3 65.49-4.3L65.49-4.3Q66.94-4.3 68.19-4.83 69.44-5.35 70.89-6.45L70.89-6.45 73.69-2.7Q70.09 0.8 65.04 0.8L65.04 0.8Q59.69 0.8 56.84-2.85 53.99-6.5 53.99-13.05L53.99-13.05Q53.99-19.6 56.69-23.45 59.39-27.3 64.44-27.3L64.44-27.3Q69.19-27.3 71.87-23.88 74.54-20.45 74.54-13.85L74.54-13.85ZM67.94-15.4L67.94-15.8Q67.94-19.4 67.14-21.03 66.34-22.65 64.49-22.65L64.49-22.65Q62.79-22.65 61.92-21.05 61.04-19.45 60.84-15.4L60.84-15.4 67.94-15.4ZM96.74-30.15L98.44-25.1Q96.49-24.1 92.24-24.1L92.24-24.1Q94.39-23.05 95.42-21.43 96.44-19.8 96.44-17.3L96.44-17.3Q96.44-13.3 93.94-10.85 91.44-8.4 87.09-8.4L87.09-8.4Q85.94-8.4 84.64-8.75L84.64-8.75Q83.79-8.15 83.79-6.9L83.79-6.9Q83.79-5.95 84.32-5.48 84.84-5 86.34-5L86.34-5 89.04-5Q93.19-5 95.59-2.93 97.99-0.85 97.99 2.45L97.99 2.45Q97.99 6.3 94.99 8.63 91.99 10.95 86.49 10.95L86.49 10.95Q80.54 10.95 78.22 8.83 75.89 6.7 75.89 2.6L75.89 2.6 81.99 2.6Q81.99 4.6 82.92 5.48 83.84 6.35 86.54 6.35L86.54 6.35Q89.04 6.35 90.12 5.45 91.19 4.55 91.19 2.9L91.19 2.9Q91.19 1.3 90.32 0.55 89.44-0.2 87.59-0.2L87.59-0.2 85.59-0.2Q81.74-0.2 79.97-1.6 78.19-3 78.19-5.35L78.19-5.35Q78.19-8 80.94-10.15L80.94-10.15Q78.84-11.45 77.89-13.25 76.94-15.05 76.94-17.7L76.94-17.7Q76.94-22.1 79.59-24.65 82.24-27.2 86.79-27.2L86.79-27.2Q90.04-27.2 92.14-27.95 94.24-28.7 96.74-30.15L96.74-30.15ZM86.84-22.7Q85.24-22.7 84.42-21.55 83.59-20.4 83.59-17.8L83.59-17.8Q83.59-15.35 84.42-14.08 85.24-12.8 86.79-12.8L86.79-12.8Q88.39-12.8 89.17-13.95 89.94-15.1 89.94-17.9L89.94-17.9Q89.94-20.4 89.19-21.55 88.44-22.7 86.84-22.7L86.84-22.7ZM113.09-27.2Q114.24-27.2 115.14-26.85L115.14-26.85 114.04-20.3Q113.14-20.6 112.19-20.6L112.19-20.6Q110.29-20.6 109.24-19.03 108.19-17.45 107.64-14.35L107.64-14.35 107.64 0 100.84 0 100.84-26.5 106.79-26.5 107.29-22Q109.14-27.2 113.09-27.2L113.09-27.2ZM135.09-6.7Q135.09-5.4 135.41-4.8 135.74-4.2 136.54-3.8L136.54-3.8 135.14 0.7Q133.04 0.45 131.74-0.38 130.44-1.2 129.79-2.95L129.79-2.95Q127.49 0.8 123.29 0.8L123.29 0.8Q119.99 0.8 118.04-1.45 116.09-3.7 116.09-7.4L116.09-7.4Q116.09-11.75 118.76-14.03 121.44-16.3 126.59-16.3L126.59-16.3 128.44-16.3 128.44-17.9Q128.44-20.35 127.64-21.33 126.84-22.3 124.89-22.3L124.89-22.3Q122.64-22.3 119.14-21L119.14-21 117.59-25.35Q119.64-26.3 121.89-26.8 124.14-27.3 126.14-27.3L126.14-27.3Q135.09-27.3 135.09-18.25L135.09-18.25 135.09-6.7ZM125.24-4.1Q127.34-4.1 128.44-7L128.44-7 128.44-12.35 127.24-12.35Q124.94-12.35 123.86-11.28 122.79-10.2 122.79-7.95L122.79-7.95Q122.79-6.05 123.44-5.08 124.09-4.1 125.24-4.1L125.24-4.1ZM151.88-5.4L154.18-1.2Q152.93-0.2 151.36 0.3 149.78 0.8 148.18 0.8L148.18 0.8Q144.53 0.8 142.68-1.28 140.83-3.35 140.83-6.9L140.83-6.9 140.83-21.65 137.88-21.65 137.88-26.5 140.83-26.5 140.83-32.3 147.63-33.15 147.63-26.5 152.58-26.5 151.93-21.65 147.63-21.65 147.63-6.95Q147.63-4.65 149.53-4.65L149.53-4.65Q150.18-4.65 150.68-4.83 151.18-5 151.88-5.4L151.88-5.4ZM175.83-13.85Q175.83-13.3 175.68-11.2L175.68-11.2 162.13-11.2Q162.33-7.3 163.51-5.8 164.68-4.3 166.78-4.3L166.78-4.3Q168.23-4.3 169.48-4.83 170.73-5.35 172.18-6.45L172.18-6.45 174.98-2.7Q171.38 0.8 166.33 0.8L166.33 0.8Q160.98 0.8 158.13-2.85 155.28-6.5 155.28-13.05L155.28-13.05Q155.28-19.6 157.98-23.45 160.68-27.3 165.73-27.3L165.73-27.3Q170.48-27.3 173.16-23.88 175.83-20.45 175.83-13.85L175.83-13.85ZM169.23-15.4L169.23-15.8Q169.23-19.4 168.43-21.03 167.63-22.65 165.78-22.65L165.78-22.65Q164.08-22.65 163.21-21.05 162.33-19.45 162.13-15.4L162.13-15.4 169.23-15.4ZM192.63-37.8L199.43-37.05 199.43 0 193.38 0 193.08-2.95Q190.73 0.8 187.03 0.8L187.03 0.8Q182.93 0.8 180.75-2.88 178.58-6.55 178.58-13.25L178.58-13.25Q178.58-17.5 179.7-20.68 180.83-23.85 182.88-25.58 184.93-27.3 187.53-27.3L187.53-27.3Q190.63-27.3 192.63-24.7L192.63-24.7 192.63-37.8ZM189.08-4.25Q191.03-4.25 192.63-7.15L192.63-7.15 192.63-19.8Q191.88-21 191.08-21.6 190.28-22.2 189.33-22.2L189.33-22.2Q185.63-22.2 185.63-13.25L185.63-13.25Q185.63-8.3 186.53-6.28 187.43-4.25 189.08-4.25L189.08-4.25ZM221.32 0L214.22 0 214.22-34.6 231.42-34.6 230.67-29.45 221.32-29.45 221.32-19.35 229.47-19.35 229.47-14.2 221.32-14.2 221.32 0ZM251.82-6.7Q251.82-5.4 252.15-4.8 252.47-4.2 253.27-3.8L253.27-3.8 251.87 0.7Q249.77 0.45 248.47-0.38 247.17-1.2 246.52-2.95L246.52-2.95Q244.22 0.8 240.02 0.8L240.02 0.8Q236.72 0.8 234.77-1.45 232.82-3.7 232.82-7.4L232.82-7.4Q232.82-11.75 235.5-14.03 238.17-16.3 243.32-16.3L243.32-16.3 245.17-16.3 245.17-17.9Q245.17-20.35 244.37-21.33 243.57-22.3 241.62-22.3L241.62-22.3Q239.37-22.3 235.87-21L235.87-21 234.32-25.35Q236.37-26.3 238.62-26.8 240.87-27.3 242.87-27.3L242.87-27.3Q251.82-27.3 251.82-18.25L251.82-18.25 251.82-6.7ZM241.97-4.1Q244.07-4.1 245.17-7L245.17-7 245.17-12.35 243.97-12.35Q241.67-12.35 240.6-11.28 239.52-10.2 239.52-7.95L239.52-7.95Q239.52-6.05 240.17-5.08 240.82-4.1 241.97-4.1L241.97-4.1ZM266.97-27.3Q271.22-27.3 274.37-24.15L274.37-24.15 271.52-20.35Q269.37-22.05 267.42-22.05L267.42-22.05Q265.27-22.05 264.19-20.03 263.12-18 263.12-13.1L263.12-13.1Q263.12-8.35 264.22-6.48 265.32-4.6 267.42-4.6L267.42-4.6Q268.47-4.6 269.37-4.98 270.27-5.35 271.37-6.2L271.37-6.2 274.37-2.3Q271.17 0.8 267.02 0.8L267.02 0.8Q261.77 0.8 258.87-2.7 255.97-6.2 255.97-13.05L255.97-13.05Q255.97-17.45 257.32-20.68 258.67-23.9 261.14-25.6 263.62-27.3 266.97-27.3L266.97-27.3ZM276.97-26.5L283.77-26.5 283.77 0 276.97 0 276.97-26.5ZM280.37-40Q282.12-40 283.22-38.85 284.32-37.7 284.32-35.95L284.32-35.95Q284.32-34.25 283.22-33.13 282.12-32 280.37-32L280.37-32Q278.57-32 277.47-33.13 276.37-34.25 276.37-35.95L276.37-35.95Q276.37-37.7 277.47-38.85 278.57-40 280.37-40L280.37-40ZM294.91 0.8Q292.01 0.8 290.34-0.95 288.66-2.7 288.66-5.7L288.66-5.7 288.66-37.05 295.46-37.8 295.46-6Q295.46-4.65 296.61-4.65L296.61-4.65Q297.11-4.65 297.61-4.85L297.61-4.85 298.91-0.15Q297.11 0.8 294.91 0.8L294.91 0.8ZM301.51-26.5L308.31-26.5 308.31 0 301.51 0 301.51-26.5ZM304.91-40Q306.66-40 307.76-38.85 308.86-37.7 308.86-35.95L308.86-35.95Q308.86-34.25 307.76-33.13 306.66-32 304.91-32L304.91-32Q303.11-32 302.01-33.13 300.91-34.25 300.91-35.95L300.91-35.95Q300.91-37.7 302.01-38.85 303.11-40 304.91-40L304.91-40ZM325.06-5.4L327.36-1.2Q326.11-0.2 324.53 0.3 322.96 0.8 321.36 0.8L321.36 0.8Q317.71 0.8 315.86-1.28 314.01-3.35 314.01-6.9L314.01-6.9 314.01-21.65 311.06-21.65 311.06-26.5 314.01-26.5 314.01-32.3 320.81-33.15 320.81-26.5 325.76-26.5 325.11-21.65 320.81-21.65 320.81-6.95Q320.81-4.65 322.71-4.65L322.71-4.65Q323.36-4.65 323.86-4.83 324.36-5 325.06-5.4L325.06-5.4ZM348.86-26.5L341.91 0.05Q339.31 10.1 329.46 10.95L329.46 10.95 328.71 6.2Q331.86 5.65 333.46 4.28 335.06 2.9 335.96 0L335.96 0 333.41 0 326.86-26.5 333.76-26.5 337.76-4.45 342.11-26.5 348.86-26.5ZM387.8-34.6L389.95 0 383.25 0 382.8-14.2 382.7-17.25Q382.65-18.8 382.6-20.85 382.55-22.9 382.55-25.35L382.55-25.35 382.6-28.2 378.3-3.75 371.65-3.75 367.1-28.2Q367.25-24.9 367.25-21.65L367.25-21.65Q367.25-17.95 367.1-14.05L367.1-14.05 366.65 0 360.05 0 362.2-34.6 370.95-34.6 375.1-10.55 378.9-34.6 387.8-34.6ZM411.75-6.7Q411.75-5.4 412.07-4.8 412.4-4.2 413.2-3.8L413.2-3.8 411.8 0.7Q409.7 0.45 408.4-0.38 407.1-1.2 406.45-2.95L406.45-2.95Q404.15 0.8 399.95 0.8L399.95 0.8Q396.65 0.8 394.7-1.45 392.75-3.7 392.75-7.4L392.75-7.4Q392.75-11.75 395.42-14.03 398.1-16.3 403.25-16.3L403.25-16.3 405.1-16.3 405.1-17.9Q405.1-20.35 404.3-21.33 403.5-22.3 401.55-22.3L401.55-22.3Q399.3-22.3 395.8-21L395.8-21 394.25-25.35Q396.3-26.3 398.55-26.8 400.8-27.3 402.8-27.3L402.8-27.3Q411.75-27.3 411.75-18.25L411.75-18.25 411.75-6.7ZM401.9-4.1Q404-4.1 405.1-7L405.1-7 405.1-12.35 403.9-12.35Q401.6-12.35 400.52-11.28 399.45-10.2 399.45-7.95L399.45-7.95Q399.45-6.05 400.1-5.08 400.75-4.1 401.9-4.1L401.9-4.1ZM429.9-27.3Q432.75-27.3 434.4-25.25 436.05-23.2 436.05-19.75L436.05-19.75 436.05 0 429.25 0 429.25-19Q429.25-20.65 428.8-21.35 428.35-22.05 427.45-22.05L427.45-22.05Q425.65-22.05 423.75-18.45L423.75-18.45 423.75 0 416.95 0 416.95-26.5 422.9-26.5 423.4-23.15Q424.7-25.2 426.25-26.25 427.8-27.3 429.9-27.3L429.9-27.3ZM458.54-6.7Q458.54-5.4 458.87-4.8 459.19-4.2 459.99-3.8L459.99-3.8 458.59 0.7Q456.49 0.45 455.19-0.38 453.89-1.2 453.24-2.95L453.24-2.95Q450.94 0.8 446.74 0.8L446.74 0.8Q443.44 0.8 441.49-1.45 439.54-3.7 439.54-7.4L439.54-7.4Q439.54-11.75 442.22-14.03 444.89-16.3 450.04-16.3L450.04-16.3 451.89-16.3 451.89-17.9Q451.89-20.35 451.09-21.33 450.29-22.3 448.34-22.3L448.34-22.3Q446.09-22.3 442.59-21L442.59-21 441.04-25.35Q443.09-26.3 445.34-26.8 447.59-27.3 449.59-27.3L449.59-27.3Q458.54-27.3 458.54-18.25L458.54-18.25 458.54-6.7ZM448.69-4.1Q450.79-4.1 451.89-7L451.89-7 451.89-12.35 450.69-12.35Q448.39-12.35 447.32-11.28 446.24-10.2 446.24-7.95L446.24-7.95Q446.24-6.05 446.89-5.08 447.54-4.1 448.69-4.1L448.69-4.1ZM482.14-30.15L483.84-25.1Q481.89-24.1 477.64-24.1L477.64-24.1Q479.79-23.05 480.82-21.43 481.84-19.8 481.84-17.3L481.84-17.3Q481.84-13.3 479.34-10.85 476.84-8.4 472.49-8.4L472.49-8.4Q471.34-8.4 470.04-8.75L470.04-8.75Q469.19-8.15 469.19-6.9L469.19-6.9Q469.19-5.95 469.72-5.48 470.24-5 471.74-5L471.74-5 474.44-5Q478.59-5 480.99-2.93 483.39-0.85 483.39 2.45L483.39 2.45Q483.39 6.3 480.39 8.63 477.39 10.95 471.89 10.95L471.89 10.95Q465.94 10.95 463.62 8.83 461.29 6.7 461.29 2.6L461.29 2.6 467.39 2.6Q467.39 4.6 468.32 5.48 469.24 6.35 471.94 6.35L471.94 6.35Q474.44 6.35 475.52 5.45 476.59 4.55 476.59 2.9L476.59 2.9Q476.59 1.3 475.72 0.55 474.84-0.2 472.99-0.2L472.99-0.2 470.99-0.2Q467.14-0.2 465.37-1.6 463.59-3 463.59-5.35L463.59-5.35Q463.59-8 466.34-10.15L466.34-10.15Q464.24-11.45 463.29-13.25 462.34-15.05 462.34-17.7L462.34-17.7Q462.34-22.1 464.99-24.65 467.64-27.2 472.19-27.2L472.19-27.2Q475.44-27.2 477.54-27.95 479.64-28.7 482.14-30.15L482.14-30.15ZM472.24-22.7Q470.64-22.7 469.82-21.55 468.99-20.4 468.99-17.8L468.99-17.8Q468.99-15.35 469.82-14.08 470.64-12.8 472.19-12.8L472.19-12.8Q473.79-12.8 474.57-13.95 475.34-15.1 475.34-17.9L475.34-17.9Q475.34-20.4 474.59-21.55 473.84-22.7 472.24-22.7L472.24-22.7ZM505.74-13.85Q505.74-13.3 505.59-11.2L505.59-11.2 492.04-11.2Q492.24-7.3 493.41-5.8 494.59-4.3 496.69-4.3L496.69-4.3Q498.14-4.3 499.39-4.83 500.64-5.35 502.09-6.45L502.09-6.45 504.89-2.7Q501.29 0.8 496.24 0.8L496.24 0.8Q490.89 0.8 488.04-2.85 485.19-6.5 485.19-13.05L485.19-13.05Q485.19-19.6 487.89-23.45 490.59-27.3 495.64-27.3L495.64-27.3Q500.39-27.3 503.06-23.88 505.74-20.45 505.74-13.85L505.74-13.85ZM499.14-15.4L499.14-15.8Q499.14-19.4 498.34-21.03 497.54-22.65 495.69-22.65L495.69-22.65Q493.99-22.65 493.11-21.05 492.24-19.45 492.04-15.4L492.04-15.4 499.14-15.4ZM533.74-27.3Q536.34-27.3 537.94-25.23 539.54-23.15 539.54-19.75L539.54-19.75 539.54 0 532.89 0 532.89-19.05Q532.89-20.7 532.46-21.4 532.04-22.1 531.24-22.1L531.24-22.1Q529.49-22.1 527.89-18.8L527.89-18.8 527.89 0 521.29 0 521.29-19.05Q521.29-22.1 519.59-22.1L519.59-22.1Q517.79-22.1 516.19-18.8L516.19-18.8 516.19 0 509.54 0 509.54-26.5 515.49-26.5 515.89-23.15Q517.14-25.15 518.66-26.23 520.19-27.3 522.14-27.3L522.14-27.3Q523.99-27.3 525.31-26.18 526.64-25.05 527.34-22.95L527.34-22.95Q529.99-27.3 533.74-27.3L533.74-27.3ZM563.98-13.85Q563.98-13.3 563.83-11.2L563.83-11.2 550.28-11.2Q550.48-7.3 551.66-5.8 552.83-4.3 554.93-4.3L554.93-4.3Q556.38-4.3 557.63-4.83 558.88-5.35 560.33-6.45L560.33-6.45 563.13-2.7Q559.53 0.8 554.48 0.8L554.48 0.8Q549.13 0.8 546.28-2.85 543.43-6.5 543.43-13.05L543.43-13.05Q543.43-19.6 546.13-23.45 548.83-27.3 553.88-27.3L553.88-27.3Q558.63-27.3 561.31-23.88 563.98-20.45 563.98-13.85L563.98-13.85ZM557.38-15.4L557.38-15.8Q557.38-19.4 556.58-21.03 555.78-22.65 553.93-22.65L553.93-22.65Q552.23-22.65 551.36-21.05 550.48-19.45 550.28-15.4L550.28-15.4 557.38-15.4ZM580.73-27.3Q583.58-27.3 585.23-25.25 586.88-23.2 586.88-19.75L586.88-19.75 586.88 0 580.08 0 580.08-19Q580.08-20.65 579.63-21.35 579.18-22.05 578.28-22.05L578.28-22.05Q576.48-22.05 574.58-18.45L574.58-18.45 574.58 0 567.78 0 567.78-26.5 573.73-26.5 574.23-23.15Q575.53-25.2 577.08-26.25 578.63-27.3 580.73-27.3L580.73-27.3ZM603.43-5.4L605.73-1.2Q604.48-0.2 602.9 0.3 601.33 0.8 599.73 0.8L599.73 0.8Q596.08 0.8 594.23-1.28 592.38-3.35 592.38-6.9L592.38-6.9 592.38-21.65 589.43-21.65 589.43-26.5 592.38-26.5 592.38-32.3 599.18-33.15 599.18-26.5 604.13-26.5 603.48-21.65 599.18-21.65 599.18-6.95Q599.18-4.65 601.08-4.65L601.08-4.65Q601.73-4.65 602.23-4.83 602.73-5 603.43-5.4L603.43-5.4ZM626.82-35.4Q629.92-35.4 632.32-34.3 634.72-33.2 636.67-31.05L636.67-31.05 633.47-27.35Q630.57-30.1 627.47-30.1L627.47-30.1Q625.67-30.1 624.62-29.03 623.57-27.95 623.57-26.15L623.57-26.15Q623.57-24.4 624.72-23.25 625.87-22.1 629.07-20.8L629.07-20.8Q631.97-19.6 633.75-18.25 635.52-16.9 636.5-14.9 637.47-12.9 637.47-9.95L637.47-9.95Q637.47-6.9 636.07-4.45 634.67-2 632.07-0.6 629.47 0.8 626.02 0.8L626.02 0.8Q622.47 0.8 619.85-0.48 617.22-1.75 615.12-4L615.12-4 618.57-7.8Q620.32-6.2 622-5.38 623.67-4.55 625.57-4.55L625.57-4.55Q627.77-4.55 628.95-5.88 630.12-7.2 630.12-9.45L630.12-9.45Q630.12-11.5 629.02-12.78 627.92-14.05 625.02-15.25L625.02-15.25Q620.32-17.2 618.32-19.6 616.32-22 616.32-25.65L616.32-25.65Q616.32-28.5 617.67-30.7 619.02-32.9 621.42-34.15 623.82-35.4 626.82-35.4L626.82-35.4ZM660.52-13.85Q660.52-13.3 660.37-11.2L660.37-11.2 646.82-11.2Q647.02-7.3 648.19-5.8 649.37-4.3 651.47-4.3L651.47-4.3Q652.92-4.3 654.17-4.83 655.42-5.35 656.87-6.45L656.87-6.45 659.67-2.7Q656.07 0.8 651.02 0.8L651.02 0.8Q645.67 0.8 642.82-2.85 639.97-6.5 639.97-13.05L639.97-13.05Q639.97-19.6 642.67-23.45 645.37-27.3 650.42-27.3L650.42-27.3Q655.17-27.3 657.84-23.88 660.52-20.45 660.52-13.85L660.52-13.85ZM653.92-15.4L653.92-15.8Q653.92-19.4 653.12-21.03 652.32-22.65 650.47-22.65L650.47-22.65Q648.77-22.65 647.89-21.05 647.02-19.45 646.82-15.4L646.82-15.4 653.92-15.4ZM676.57-27.2Q677.72-27.2 678.62-26.85L678.62-26.85 677.52-20.3Q676.62-20.6 675.67-20.6L675.67-20.6Q673.77-20.6 672.72-19.03 671.67-17.45 671.12-14.35L671.12-14.35 671.12 0 664.32 0 664.32-26.5 670.27-26.5 670.77-22Q672.62-27.2 676.57-27.2L676.57-27.2ZM693.46-26.5L700.11-26.5 693.36 0 685.31 0 678.36-26.5 685.36-26.5 689.36-5.3 693.46-26.5ZM702.56-26.5L709.36-26.5 709.36 0 702.56 0 702.56-26.5ZM705.96-40Q707.71-40 708.81-38.85 709.91-37.7 709.91-35.95L709.91-35.95Q709.91-34.25 708.81-33.13 707.71-32 705.96-32L705.96-32Q704.16-32 703.06-33.13 701.96-34.25 701.96-35.95L701.96-35.95Q701.96-37.7 703.06-38.85 704.16-40 705.96-40L705.96-40ZM724.46-27.3Q728.71-27.3 731.86-24.15L731.86-24.15 729.01-20.35Q726.86-22.05 724.91-22.05L724.91-22.05Q722.76-22.05 721.68-20.03 720.61-18 720.61-13.1L720.61-13.1Q720.61-8.35 721.71-6.48 722.81-4.6 724.91-4.6L724.91-4.6Q725.96-4.6 726.86-4.98 727.76-5.35 728.86-6.2L728.86-6.2 731.86-2.3Q728.66 0.8 724.51 0.8L724.51 0.8Q719.26 0.8 716.36-2.7 713.46-6.2 713.46-13.05L713.46-13.05Q713.46-17.45 714.81-20.68 716.16-23.9 718.63-25.6 721.11-27.3 724.46-27.3L724.46-27.3ZM753.96-13.85Q753.96-13.3 753.81-11.2L753.81-11.2 740.26-11.2Q740.46-7.3 741.63-5.8 742.81-4.3 744.91-4.3L744.91-4.3Q746.36-4.3 747.61-4.83 748.86-5.35 750.31-6.45L750.31-6.45 753.11-2.7Q749.51 0.8 744.46 0.8L744.46 0.8Q739.11 0.8 736.26-2.85 733.41-6.5 733.41-13.05L733.41-13.05Q733.41-19.6 736.11-23.45 738.81-27.3 743.86-27.3L743.86-27.3Q748.61-27.3 751.28-23.88 753.96-20.45 753.96-13.85L753.96-13.85ZM747.36-15.4L747.36-15.8Q747.36-19.4 746.56-21.03 745.76-22.65 743.91-22.65L743.91-22.65Q742.21-22.65 741.33-21.05 740.46-19.45 740.26-15.4L740.26-15.4 747.36-15.4ZM765.45-27.3Q767.9-27.3 769.98-26.48 772.05-25.65 773.6-24.1L773.6-24.1 771.05-20.4Q768.35-22.35 766-22.35L766-22.35Q764.65-22.35 763.9-21.68 763.15-21 763.15-19.75L763.15-19.75Q763.15-18.9 763.53-18.32 763.9-17.75 764.85-17.18 765.8-16.6 767.75-15.8L767.75-15.8Q771.15-14.45 772.75-12.63 774.35-10.8 774.35-7.7L774.35-7.7Q774.35-3.75 771.6-1.48 768.85 0.8 764.55 0.8L764.55 0.8Q761.8 0.8 759.45-0.2 757.1-1.2 755.4-3L755.4-3 758.6-6.55Q761.6-4.1 764.25-4.1L764.25-4.1Q765.75-4.1 766.6-4.9 767.45-5.7 767.45-7.1L767.45-7.1Q767.45-8.65 766.55-9.53 765.65-10.4 762.85-11.5L762.85-11.5Q759.4-12.9 757.93-14.7 756.45-16.5 756.45-19.3L756.45-19.3Q756.45-21.55 757.53-23.38 758.6-25.2 760.65-26.25 762.7-27.3 765.45-27.3L765.45-27.3Z" opacity="1" transform="matrix(1,0,0,1,0,0)" fill="#ffffff" class="slogan-text-1" data-fill-palette-color="quaternary" id="text-1"></path></svg></g></svg></g></svg></g></svg></g><g></g></svg></g></svg></g></svg></g></svg></g><defs></defs><mask id="7c36f1ff-e7e2-4712-a2aa-bc6221526b51"><g id="SvgjsG3800"><svg viewBox="0 0 342.85155851775386 342.85155851775386" height="342.85155851775386" width="342.85155851775386"><g><svg></svg></g><g><svg viewBox="0 0 342.85155851775386 342.85155851775386" height="342.85155851775386" width="342.85155851775386"><g><path d="M0 171.426c0-94.676 76.75-171.426 171.426-171.426 94.676 0 171.426 76.75 171.426 171.426 0 94.676-76.75 171.426-171.426 171.426-94.676 0-171.426-76.75-171.426-171.426zM171.426 339.102c92.605 0 167.676-75.071 167.676-167.676 0-92.605-75.071-167.676-167.676-167.676-92.605 0-167.676 75.071-167.676 167.676 0 92.605 75.071 167.676 167.676 167.676z" fill="white" stroke="transparent"></path><ellipse rx="164.56874808852186" ry="164.56874808852186" cx="171.42577925887693" cy="171.42577925887693" fill="white" stroke="transparent" stroke-width="0" fill-opacity="1"></ellipse></g><g transform="matrix(1,0,0,1,64.84655864529837,115.75841959186688)"><svg viewBox="0 0 213.1584412271571 111.3347193340201" height="111.3347193340201" width="213.1584412271571"><g><svg viewBox="0 0 213.1584412271571 111.3347193340201" height="111.3347193340201" width="213.1584412271571"><g><svg viewBox="0 0 213.1584412271571 111.3347193340201" height="111.3347193340201" width="213.1584412271571"><g><svg viewBox="0 0 213.1584412271571 111.3347193340201" height="111.3347193340201" width="213.1584412271571"><g id="SvgjsG3799"><svg viewBox="0 0 213.1584412271571 111.3347193340201" height="111.3347193340201" width="213.1584412271571" id="SvgjsSvg3798"><g><svg viewBox="0 0 213.1584412271571 88.4180337916553" height="88.4180337916553" width="213.1584412271571"><g transform="matrix(1,0,0,1,0,0)"><svg width="213.1584412271571" viewBox="3.999999999999999 -39.69999999999999 243.3 97.15" height="88.4180337916553" data-palette-color="#0729ad"><svg></svg><svg></svg><g class="wordmark-text-0" data-fill-palette-color="quaternary" id="SvgjsG3797"><path d="M14.85-5h6.8c1.233 0 2.1-0.35 2.6-1.05 0.5-0.7 0.75-1.483 0.75-2.35v0-22.9c0-0.833-0.25-1.6-0.75-2.3-0.5-0.7-1.367-1.05-2.6-1.05v0h-11.7l-0.05 32.6c0 0.733-0.283 1.317-0.85 1.75-0.567 0.433-1.267 0.65-2.1 0.65v0c-1.967 0-2.95-0.8-2.95-2.4v0-34.65c0-1.2 0.31-2 0.93-2.4 0.613-0.4 1.353-0.6 2.22-0.6v0h15.75c0.867 0 1.767 0.183 2.7 0.55 0.933 0.367 1.833 0.833 2.7 1.4v0h-0.05c0.867 0.633 1.533 1.46 2 2.48 0.467 1.013 0.7 2.187 0.7 3.52v0 23.75c0 2.7-0.9 4.717-2.7 6.05v0c-0.867 0.633-1.757 1.123-2.67 1.47-0.92 0.353-1.813 0.53-2.68 0.53v0h-8.4c-0.567 0-1.007-0.233-1.32-0.7-0.32-0.467-0.48-1.083-0.48-1.85v0c0-1.667 0.717-2.5 2.15-2.5zM62.1-28v20.05c0 1.333-0.233 2.517-0.7 3.55-0.467 1.033-1.133 1.867-2 2.5v0h0.05c-0.833 0.567-1.717 1.023-2.65 1.37-0.933 0.353-1.833 0.53-2.7 0.53v0h-8.05c-0.833 0-1.723-0.177-2.67-0.53-0.953-0.347-1.847-0.803-2.68-1.37v0h0.05c-0.867-0.633-1.533-1.467-2-2.5-0.467-1.033-0.7-2.217-0.7-3.55v0-20.05c0-1.6 0.917-2.4 2.75-2.4v0c1.833 0 2.75 0.8 2.75 2.4v0 19.65c0 0.933 0.233 1.75 0.7 2.45v0c0.433 0.8 1.333 1.2 2.7 1.2v0h6.25c1.333 0 2.217-0.4 2.65-1.2v0l-0.05 0.05c0.533-0.8 0.8-1.633 0.8-2.5v0-19.65c0-1.6 0.917-2.4 2.75-2.4v0c1.833 0 2.75 0.8 2.75 2.4zM79.05-25.4h-4.15v18.2c0 0.867 0.183 1.533 0.55 2 0.367 0.467 1.15 0.7 2.35 0.7v0h1.3c1.3 0 1.917 0.767 1.85 2.3v0c0 1.567-0.617 2.35-1.85 2.35v0h-1.65c-1.067 0-2.067-0.143-3-0.43-0.933-0.28-1.833-0.687-2.7-1.22v0 0.05c-1.633-1.067-2.45-2.967-2.45-5.7v0-18.25h-1.95c-1.2 0-1.833-0.783-1.9-2.35v0c0-1.567 0.633-2.35 1.9-2.35v0h1.95v-5.35c0-1.6 0.95-2.4 2.85-2.4v0c1.833 0 2.75 0.8 2.75 2.4v0 5.35h4.15c1.3 0 1.917 0.783 1.85 2.35v0c0 1.567-0.617 2.35-1.85 2.35zM96-25.4h-4.15v18.2c0 0.867 0.183 1.533 0.55 2 0.367 0.467 1.15 0.7 2.35 0.7v0h1.3c1.3 0 1.917 0.767 1.85 2.3v0c0 1.567-0.617 2.35-1.85 2.35v0h-1.65c-1.067 0-2.067-0.143-3-0.43-0.933-0.28-1.833-0.687-2.7-1.22v0 0.05c-1.633-1.067-2.45-2.967-2.45-5.7v0-18.25h-1.95c-1.2 0-1.833-0.783-1.9-2.35v0c0-1.567 0.633-2.35 1.9-2.35v0h1.95v-5.35c0-1.6 0.95-2.4 2.85-2.4v0c1.833 0 2.75 0.8 2.75 2.4v0 5.35h4.15c1.3 0 1.917 0.783 1.85 2.35v0c0 1.567-0.617 2.35-1.85 2.35zM116.35 0h-6.55c-1.033 0-2.017-0.143-2.95-0.43-0.933-0.28-1.833-0.687-2.7-1.22v0 0.05c-1.633-1.033-2.45-2.933-2.45-5.7v0-2.45c0-1.367 0.24-2.56 0.72-3.58 0.487-1.013 1.163-1.82 2.03-2.42v0h-0.05c0.833-0.567 1.717-0.993 2.65-1.28 0.933-0.28 1.833-0.42 2.7-0.42v0h11.05v-4.65c0-0.833-0.257-1.593-0.77-2.28-0.52-0.68-1.397-1.02-2.63-1.02v0h-5.85c-1.267 0-2.14 0.307-2.62 0.92-0.487 0.62-0.73 1.347-0.73 2.18v0 0.4c0 1.733-0.933 2.6-2.8 2.6v0c-1.867 0-2.8-0.867-2.8-2.6v0-0.45c0-1.367 0.243-2.517 0.73-3.45 0.48-0.933 1.137-1.717 1.97-2.35v0h-0.05c0.867-0.567 1.777-1.033 2.73-1.4 0.947-0.367 1.853-0.55 2.72-0.55v0h7.6c0.833 0 1.727 0.183 2.68 0.55 0.947 0.367 1.837 0.833 2.67 1.4v0h-0.05c0.867 0.633 1.533 1.457 2 2.47 0.467 1.02 0.7 2.197 0.7 3.53v0 20.05c0 1.6-0.917 2.4-2.75 2.4v0c-0.367 0-0.707-0.017-1.02-0.05-0.32-0.033-0.603-0.127-0.85-0.28-0.253-0.147-0.453-0.363-0.6-0.65-0.153-0.28-0.23-0.653-0.23-1.12v0l-0.05-10.95h-10.1c-0.733 0-1.3 0.083-1.7 0.25-0.4 0.167-0.717 0.433-0.95 0.8v0c-0.267 0.567-0.457 1.007-0.57 1.32-0.12 0.32-0.18 0.68-0.18 1.08v0 1.95c0 0.867 0.26 1.523 0.78 1.97 0.513 0.453 1.403 0.68 2.67 0.68v0h5.6c1.233 0 1.85 0.783 1.85 2.35v0c0 0.667-0.15 1.223-0.45 1.67-0.3 0.453-0.767 0.68-1.4 0.68z" fill="black" fill-rule="nonzero" stroke="none" stroke-width="1" stroke-linecap="butt" stroke-linejoin="miter" stroke-miterlimit="10" stroke-dasharray="" stroke-dashoffset="0" font-family="none" font-weight="none" font-size="none" text-anchor="none" style="mix-blend-mode: normal" opacity="1"></path><path d="M25.5 50.5h-18.3c-1.233 0-2.067-0.317-2.5-0.95-0.433-0.633-0.65-1.333-0.65-2.1v0-33.7c0-0.767 0.217-1.46 0.65-2.08 0.433-0.613 1.267-0.92 2.5-0.92v0h17.4c1.233 0 1.883 0.833 1.95 2.5v0c0.067 1.7-0.583 2.55-1.95 2.55v0h-14.65v29.65h15.55c1.233 0 1.867 0.817 1.9 2.45v0c0.067 1.733-0.567 2.6-1.9 2.6zM22.75 29.8v0c0 1.167-0.407 2.15-1.22 2.95-0.82 0.8-1.813 1.2-2.98 1.2v0c-1.133 0-2.1-0.4-2.9-1.2-0.8-0.8-1.2-1.783-1.2-2.95v0c0-1.167 0.4-2.15 1.2-2.95 0.8-0.8 1.767-1.2 2.9-1.2v0c1.167 0 2.16 0.4 2.98 1.2 0.813 0.8 1.22 1.783 1.22 2.95zM37.85 28.7v19.65c0 1.6-0.917 2.4-2.75 2.4v0c-1.833 0-2.75-0.8-2.75-2.4v0-20.1c0-1.367 0.217-2.55 0.65-3.55 0.433-1 1.117-1.817 2.05-2.45v0c1.767-1.267 3.533-1.9 5.3-1.9v0h8.05c1.7 0 3.467 0.633 5.3 1.9v0c1.8 1.267 2.7 3.267 2.7 6v0 20.1c0 1.6-0.917 2.4-2.75 2.4v0c-1.833 0-2.75-0.8-2.75-2.4v0-19.65c0-0.867-0.267-1.7-0.8-2.5v0l0.05 0.05c-0.433-0.8-1.317-1.2-2.65-1.2v0h-6.25c-1.367 0-2.267 0.4-2.7 1.2v0c-0.467 0.7-0.7 1.517-0.7 2.45zM73.55 25.05h-4.15v18.2c0 0.867 0.183 1.533 0.55 2 0.367 0.467 1.15 0.7 2.35 0.7v0h1.3c1.3 0 1.917 0.767 1.85 2.3v0c0 1.567-0.617 2.35-1.85 2.35v0h-1.65c-1.067 0-2.067-0.143-3-0.43-0.933-0.28-1.833-0.687-2.7-1.22v0 0.05c-1.633-1.067-2.45-2.967-2.45-5.7v0-18.25h-1.95c-1.2 0-1.833-0.783-1.9-2.35v0c0-1.567 0.633-2.35 1.9-2.35v0h1.95v-5.35c0-1.6 0.95-2.4 2.85-2.4v0c1.833 0 2.75 0.8 2.75 2.4v0 5.35h4.15c1.3 0 1.917 0.783 1.85 2.35v0c0 1.567-0.617 2.35-1.85 2.35zM85.3 28.3v14.15c0 0.8 0.26 1.55 0.78 2.25 0.513 0.7 1.387 1.05 2.62 1.05v0h6.25c1.233 0 2.11-0.31 2.63-0.93 0.513-0.613 0.77-1.32 0.77-2.12v0-0.55c0-1.567 0.917-2.35 2.75-2.35v0c1.833 0 2.75 0.783 2.75 2.35v0 0.6c0 1.4-0.227 2.55-0.68 3.45-0.447 0.9-1.12 1.683-2.02 2.35v0c-1.767 1.267-3.533 1.9-5.3 1.9v0h-8.4c-1.767 0-3.483-0.633-5.15-1.9v0c-0.8-0.667-1.417-1.507-1.85-2.52-0.433-1.02-0.65-2.197-0.65-3.53v0-14.25c0-2.7 0.833-4.7 2.5-6v0c0.833-0.6 1.693-1.077 2.58-1.43 0.88-0.347 1.737-0.52 2.57-0.52v0h8.4c0.8 0 1.683 0.157 2.65 0.47 0.967 0.32 1.867 0.747 2.7 1.28v0c0.8 0.567 1.443 1.35 1.93 2.35 0.48 1 0.72 2.183 0.72 3.55v0 6.75c0 0.767-0.227 1.45-0.68 2.05-0.447 0.6-1.27 0.9-2.47 0.9v0h-10.8c-1.2 0-1.833-0.783-1.9-2.35v0c0-1.567 0.633-2.35 1.9-2.35v0h8.5l-0.05-4.65c0-0.833-0.257-1.593-0.77-2.28-0.52-0.68-1.397-1.02-2.63-1.02v0h-6.25c-1.233 0-2.107 0.34-2.62 1.02-0.52 0.687-0.78 1.447-0.78 2.28zM115.6 27.7v20.65c0 1.6-0.917 2.4-2.75 2.4v0c-1.9 0-2.85-0.8-2.85-2.4v0-20.7c0-2.733 0.817-4.633 2.45-5.7v0c1.633-1.067 3.517-1.6 5.65-1.6v0h5.7c1.233 0 1.85 0.783 1.85 2.35v0c0.067 1.567-0.55 2.35-1.85 2.35v0h-5.3c-1.2 0-1.983 0.233-2.35 0.7-0.367 0.467-0.55 1.117-0.55 1.95zM145.95 50.45h-5.95c-1.2 0-1.833-0.783-1.9-2.35v0c0-1.567 0.633-2.35 1.9-2.35v0h5.05c1.233 0 2.11-0.35 2.63-1.05 0.513-0.7 0.77-1.45 0.77-2.25v0-14.1c0-0.833-0.257-1.61-0.77-2.33-0.52-0.713-1.413-1.037-2.68-0.97v0h-9.6v30.05c0 1.567-0.917 2.35-2.75 2.35v0c-1.833 0-2.75-0.8-2.75-2.4v0-31.75c0-1.167 0.3-1.95 0.9-2.35 0.6-0.4 1.333-0.6 2.2-0.6v0h12.95c0.867 0 1.743 0.15 2.63 0.45 0.88 0.3 1.787 0.717 2.72 1.25v0c0.8 0.567 1.443 1.357 1.93 2.37 0.48 1.02 0.72 2.213 0.72 3.58v0 14.8c0 2.733-0.883 4.683-2.65 5.85v0c-1.867 1.2-3.65 1.8-5.35 1.8zM165.6 27.7v20.65c0 1.6-0.917 2.4-2.75 2.4v0c-1.9 0-2.85-0.8-2.85-2.4v0-20.7c0-2.733 0.817-4.633 2.45-5.7v0c1.633-1.067 3.517-1.6 5.65-1.6v0h5.7c1.233 0 1.85 0.783 1.85 2.35v0c0.067 1.567-0.55 2.35-1.85 2.35v0h-5.3c-1.2 0-1.983 0.233-2.35 0.7-0.367 0.467-0.55 1.117-0.55 1.95zM185.55 22.55v25.8c0 1.6-0.917 2.4-2.75 2.4v0c-1.867 0-2.8-0.8-2.8-2.4v0-25.8c0-1.6 0.933-2.4 2.8-2.4v0c1.833 0 2.75 0.8 2.75 2.4zM186.6 13.85v0c0 1.067-0.367 1.967-1.1 2.7-0.733 0.733-1.633 1.1-2.7 1.1v0c-1.067 0-1.973-0.367-2.72-1.1-0.753-0.733-1.13-1.633-1.13-2.7v0c0-1.1 0.377-2.017 1.13-2.75 0.747-0.733 1.653-1.1 2.72-1.1v0c1.067 0 1.967 0.367 2.7 1.1 0.733 0.733 1.1 1.65 1.1 2.75zM201.4 32.95h7.35c0.833 0 1.727 0.19 2.68 0.57 0.947 0.387 1.837 0.863 2.67 1.43v0h-0.05c0.867 0.633 1.533 1.45 2 2.45 0.467 1 0.7 2.2 0.7 3.6v0 1.5c0 2.733-0.9 4.75-2.7 6.05v0c-0.867 0.667-1.75 1.15-2.65 1.45-0.9 0.3-1.783 0.45-2.65 0.45v0h-8.5c-0.867 0-1.75-0.15-2.65-0.45-0.9-0.3-1.783-0.783-2.65-1.45v0c-1.8-1.267-2.7-3.283-2.7-6.05v0-0.6c0-1.433 0.917-2.133 2.75-2.1v0c1.867 0 2.8 0.7 2.8 2.1v0 0.55c0 0.8 0.25 1.55 0.75 2.25 0.5 0.7 1.383 1.05 2.65 1.05v0h6.6c1.267 0 2.15-0.35 2.65-1.05 0.5-0.7 0.75-1.45 0.75-2.25v0-1.4c0-0.433-0.057-0.85-0.17-1.25-0.12-0.4-0.313-0.76-0.58-1.08-0.267-0.313-0.617-0.57-1.05-0.77-0.433-0.2-0.967-0.3-1.6-0.3v0h-7.3c-1.7 0-3.483-0.6-5.35-1.8v0c-1.767-1.133-2.65-3.083-2.65-5.85v0-1.7c0-1.333 0.233-2.51 0.7-3.53 0.467-1.013 1.133-1.837 2-2.47v0h-0.05c0.833-0.567 1.717-1.033 2.65-1.4 0.933-0.367 1.833-0.55 2.7-0.55v0h8c0.867 0 1.76 0.183 2.68 0.55 0.913 0.367 1.803 0.833 2.67 1.4v0h-0.05c0.867 0.633 1.533 1.457 2 2.47 0.467 1.02 0.7 2.197 0.7 3.53v0 0.45c0 0.7-0.233 1.207-0.7 1.52-0.467 0.32-1.15 0.497-2.05 0.53v0c-1.833 0.033-2.75-0.65-2.75-2.05v0-0.4c0-0.833-0.257-1.593-0.77-2.28-0.52-0.68-1.397-1.02-2.63-1.02v0h-6.2c-1.233 0-2.107 0.34-2.62 1.02-0.52 0.687-0.78 1.447-0.78 2.28v0 1.2c0 0.867 0.26 1.65 0.78 2.35 0.513 0.7 1.387 1.05 2.62 1.05zM228.75 28.3v14.15c0 0.8 0.26 1.55 0.78 2.25 0.513 0.7 1.387 1.05 2.62 1.05v0h6.25c1.233 0 2.11-0.31 2.63-0.93 0.513-0.613 0.77-1.32 0.77-2.12v0-0.55c0-1.567 0.917-2.35 2.75-2.35v0c1.833 0 2.75 0.783 2.75 2.35v0 0.6c0 1.4-0.223 2.55-0.67 3.45-0.453 0.9-1.13 1.683-2.03 2.35v0c-1.767 1.267-3.533 1.9-5.3 1.9v0h-8.4c-1.767 0-3.483-0.633-5.15-1.9v0c-0.8-0.667-1.417-1.507-1.85-2.52-0.433-1.02-0.65-2.197-0.65-3.53v0-14.25c0-2.7 0.833-4.7 2.5-6v0c0.833-0.6 1.693-1.077 2.58-1.43 0.88-0.347 1.737-0.52 2.57-0.52v0h8.4c0.8 0 1.683 0.157 2.65 0.47 0.967 0.32 1.867 0.747 2.7 1.28v0c0.8 0.567 1.443 1.35 1.93 2.35 0.48 1 0.72 2.183 0.72 3.55v0 6.75c0 0.767-0.223 1.45-0.67 2.05-0.453 0.6-1.28 0.9-2.48 0.9v0h-10.8c-1.2 0-1.833-0.783-1.9-2.35v0c0-1.567 0.633-2.35 1.9-2.35v0h8.5l-0.05-4.65c0-0.833-0.257-1.593-0.77-2.28-0.52-0.68-1.397-1.02-2.63-1.02v0h-6.25c-1.233 0-2.107 0.34-2.62 1.02-0.52 0.687-0.78 1.447-0.78 2.28z" fill="black" fill-rule="nonzero" stroke="none" stroke-width="1" stroke-linecap="butt" stroke-linejoin="miter" stroke-miterlimit="10" stroke-dasharray="" stroke-dashoffset="0" font-family="none" font-weight="none" font-size="none" text-anchor="none" style="mix-blend-mode: normal" opacity="1"></path></g></svg></g></svg></g><g transform="matrix(1,0,0,1,0,98.23410593356981)"><svg viewBox="0 0 198.45050878248327 13.100613400450275" height="13.100613400450275" width="198.45050878248327"><g transform="matrix(1,0,0,1,0,0)"><svg width="198.45050878248327" viewBox="2.65 -40 771.7 50.95" height="13.100613400450275" data-palette-color="#0729ad"><path d="M2.65-34.6L9.75-34.6 9.75 0 2.65 0 2.65-34.6ZM27.9-27.3Q30.75-27.3 32.4-25.25 34.05-23.2 34.05-19.75L34.05-19.75 34.05 0 27.25 0 27.25-19Q27.25-20.65 26.8-21.35 26.35-22.05 25.45-22.05L25.45-22.05Q23.65-22.05 21.75-18.45L21.75-18.45 21.75 0 14.95 0 14.95-26.5 20.9-26.5 21.4-23.15Q22.7-25.2 24.25-26.25 25.8-27.3 27.9-27.3L27.9-27.3ZM50.6-5.4L52.9-1.2Q51.65-0.2 50.07 0.3 48.5 0.8 46.9 0.8L46.9 0.8Q43.25 0.8 41.4-1.28 39.55-3.35 39.55-6.9L39.55-6.9 39.55-21.65 36.6-21.65 36.6-26.5 39.55-26.5 39.55-32.3 46.35-33.15 46.35-26.5 51.3-26.5 50.65-21.65 46.35-21.65 46.35-6.95Q46.35-4.65 48.25-4.65L48.25-4.65Q48.9-4.65 49.4-4.83 49.9-5 50.6-5.4L50.6-5.4ZM74.54-13.85Q74.54-13.3 74.39-11.2L74.39-11.2 60.84-11.2Q61.04-7.3 62.22-5.8 63.39-4.3 65.49-4.3L65.49-4.3Q66.94-4.3 68.19-4.83 69.44-5.35 70.89-6.45L70.89-6.45 73.69-2.7Q70.09 0.8 65.04 0.8L65.04 0.8Q59.69 0.8 56.84-2.85 53.99-6.5 53.99-13.05L53.99-13.05Q53.99-19.6 56.69-23.45 59.39-27.3 64.44-27.3L64.44-27.3Q69.19-27.3 71.87-23.88 74.54-20.45 74.54-13.85L74.54-13.85ZM67.94-15.4L67.94-15.8Q67.94-19.4 67.14-21.03 66.34-22.65 64.49-22.65L64.49-22.65Q62.79-22.65 61.92-21.05 61.04-19.45 60.84-15.4L60.84-15.4 67.94-15.4ZM96.74-30.15L98.44-25.1Q96.49-24.1 92.24-24.1L92.24-24.1Q94.39-23.05 95.42-21.43 96.44-19.8 96.44-17.3L96.44-17.3Q96.44-13.3 93.94-10.85 91.44-8.4 87.09-8.4L87.09-8.4Q85.94-8.4 84.64-8.75L84.64-8.75Q83.79-8.15 83.79-6.9L83.79-6.9Q83.79-5.95 84.32-5.48 84.84-5 86.34-5L86.34-5 89.04-5Q93.19-5 95.59-2.93 97.99-0.85 97.99 2.45L97.99 2.45Q97.99 6.3 94.99 8.63 91.99 10.95 86.49 10.95L86.49 10.95Q80.54 10.95 78.22 8.83 75.89 6.7 75.89 2.6L75.89 2.6 81.99 2.6Q81.99 4.6 82.92 5.48 83.84 6.35 86.54 6.35L86.54 6.35Q89.04 6.35 90.12 5.45 91.19 4.55 91.19 2.9L91.19 2.9Q91.19 1.3 90.32 0.55 89.44-0.2 87.59-0.2L87.59-0.2 85.59-0.2Q81.74-0.2 79.97-1.6 78.19-3 78.19-5.35L78.19-5.35Q78.19-8 80.94-10.15L80.94-10.15Q78.84-11.45 77.89-13.25 76.94-15.05 76.94-17.7L76.94-17.7Q76.94-22.1 79.59-24.65 82.24-27.2 86.79-27.2L86.79-27.2Q90.04-27.2 92.14-27.95 94.24-28.7 96.74-30.15L96.74-30.15ZM86.84-22.7Q85.24-22.7 84.42-21.55 83.59-20.4 83.59-17.8L83.59-17.8Q83.59-15.35 84.42-14.08 85.24-12.8 86.79-12.8L86.79-12.8Q88.39-12.8 89.17-13.95 89.94-15.1 89.94-17.9L89.94-17.9Q89.94-20.4 89.19-21.55 88.44-22.7 86.84-22.7L86.84-22.7ZM113.09-27.2Q114.24-27.2 115.14-26.85L115.14-26.85 114.04-20.3Q113.14-20.6 112.19-20.6L112.19-20.6Q110.29-20.6 109.24-19.03 108.19-17.45 107.64-14.35L107.64-14.35 107.64 0 100.84 0 100.84-26.5 106.79-26.5 107.29-22Q109.14-27.2 113.09-27.2L113.09-27.2ZM135.09-6.7Q135.09-5.4 135.41-4.8 135.74-4.2 136.54-3.8L136.54-3.8 135.14 0.7Q133.04 0.45 131.74-0.38 130.44-1.2 129.79-2.95L129.79-2.95Q127.49 0.8 123.29 0.8L123.29 0.8Q119.99 0.8 118.04-1.45 116.09-3.7 116.09-7.4L116.09-7.4Q116.09-11.75 118.76-14.03 121.44-16.3 126.59-16.3L126.59-16.3 128.44-16.3 128.44-17.9Q128.44-20.35 127.64-21.33 126.84-22.3 124.89-22.3L124.89-22.3Q122.64-22.3 119.14-21L119.14-21 117.59-25.35Q119.64-26.3 121.89-26.8 124.14-27.3 126.14-27.3L126.14-27.3Q135.09-27.3 135.09-18.25L135.09-18.25 135.09-6.7ZM125.24-4.1Q127.34-4.1 128.44-7L128.44-7 128.44-12.35 127.24-12.35Q124.94-12.35 123.86-11.28 122.79-10.2 122.79-7.95L122.79-7.95Q122.79-6.05 123.44-5.08 124.09-4.1 125.24-4.1L125.24-4.1ZM151.88-5.4L154.18-1.2Q152.93-0.2 151.36 0.3 149.78 0.8 148.18 0.8L148.18 0.8Q144.53 0.8 142.68-1.28 140.83-3.35 140.83-6.9L140.83-6.9 140.83-21.65 137.88-21.65 137.88-26.5 140.83-26.5 140.83-32.3 147.63-33.15 147.63-26.5 152.58-26.5 151.93-21.65 147.63-21.65 147.63-6.95Q147.63-4.65 149.53-4.65L149.53-4.65Q150.18-4.65 150.68-4.83 151.18-5 151.88-5.4L151.88-5.4ZM175.83-13.85Q175.83-13.3 175.68-11.2L175.68-11.2 162.13-11.2Q162.33-7.3 163.51-5.8 164.68-4.3 166.78-4.3L166.78-4.3Q168.23-4.3 169.48-4.83 170.73-5.35 172.18-6.45L172.18-6.45 174.98-2.7Q171.38 0.8 166.33 0.8L166.33 0.8Q160.98 0.8 158.13-2.85 155.28-6.5 155.28-13.05L155.28-13.05Q155.28-19.6 157.98-23.45 160.68-27.3 165.73-27.3L165.73-27.3Q170.48-27.3 173.16-23.88 175.83-20.45 175.83-13.85L175.83-13.85ZM169.23-15.4L169.23-15.8Q169.23-19.4 168.43-21.03 167.63-22.65 165.78-22.65L165.78-22.65Q164.08-22.65 163.21-21.05 162.33-19.45 162.13-15.4L162.13-15.4 169.23-15.4ZM192.63-37.8L199.43-37.05 199.43 0 193.38 0 193.08-2.95Q190.73 0.8 187.03 0.8L187.03 0.8Q182.93 0.8 180.75-2.88 178.58-6.55 178.58-13.25L178.58-13.25Q178.58-17.5 179.7-20.68 180.83-23.85 182.88-25.58 184.93-27.3 187.53-27.3L187.53-27.3Q190.63-27.3 192.63-24.7L192.63-24.7 192.63-37.8ZM189.08-4.25Q191.03-4.25 192.63-7.15L192.63-7.15 192.63-19.8Q191.88-21 191.08-21.6 190.28-22.2 189.33-22.2L189.33-22.2Q185.63-22.2 185.63-13.25L185.63-13.25Q185.63-8.3 186.53-6.28 187.43-4.25 189.08-4.25L189.08-4.25ZM221.32 0L214.22 0 214.22-34.6 231.42-34.6 230.67-29.45 221.32-29.45 221.32-19.35 229.47-19.35 229.47-14.2 221.32-14.2 221.32 0ZM251.82-6.7Q251.82-5.4 252.15-4.8 252.47-4.2 253.27-3.8L253.27-3.8 251.87 0.7Q249.77 0.45 248.47-0.38 247.17-1.2 246.52-2.95L246.52-2.95Q244.22 0.8 240.02 0.8L240.02 0.8Q236.72 0.8 234.77-1.45 232.82-3.7 232.82-7.4L232.82-7.4Q232.82-11.75 235.5-14.03 238.17-16.3 243.32-16.3L243.32-16.3 245.17-16.3 245.17-17.9Q245.17-20.35 244.37-21.33 243.57-22.3 241.62-22.3L241.62-22.3Q239.37-22.3 235.87-21L235.87-21 234.32-25.35Q236.37-26.3 238.62-26.8 240.87-27.3 242.87-27.3L242.87-27.3Q251.82-27.3 251.82-18.25L251.82-18.25 251.82-6.7ZM241.97-4.1Q244.07-4.1 245.17-7L245.17-7 245.17-12.35 243.97-12.35Q241.67-12.35 240.6-11.28 239.52-10.2 239.52-7.95L239.52-7.95Q239.52-6.05 240.17-5.08 240.82-4.1 241.97-4.1L241.97-4.1ZM266.97-27.3Q271.22-27.3 274.37-24.15L274.37-24.15 271.52-20.35Q269.37-22.05 267.42-22.05L267.42-22.05Q265.27-22.05 264.19-20.03 263.12-18 263.12-13.1L263.12-13.1Q263.12-8.35 264.22-6.48 265.32-4.6 267.42-4.6L267.42-4.6Q268.47-4.6 269.37-4.98 270.27-5.35 271.37-6.2L271.37-6.2 274.37-2.3Q271.17 0.8 267.02 0.8L267.02 0.8Q261.77 0.8 258.87-2.7 255.97-6.2 255.97-13.05L255.97-13.05Q255.97-17.45 257.32-20.68 258.67-23.9 261.14-25.6 263.62-27.3 266.97-27.3L266.97-27.3ZM276.97-26.5L283.77-26.5 283.77 0 276.97 0 276.97-26.5ZM280.37-40Q282.12-40 283.22-38.85 284.32-37.7 284.32-35.95L284.32-35.95Q284.32-34.25 283.22-33.13 282.12-32 280.37-32L280.37-32Q278.57-32 277.47-33.13 276.37-34.25 276.37-35.95L276.37-35.95Q276.37-37.7 277.47-38.85 278.57-40 280.37-40L280.37-40ZM294.91 0.8Q292.01 0.8 290.34-0.95 288.66-2.7 288.66-5.7L288.66-5.7 288.66-37.05 295.46-37.8 295.46-6Q295.46-4.65 296.61-4.65L296.61-4.65Q297.11-4.65 297.61-4.85L297.61-4.85 298.91-0.15Q297.11 0.8 294.91 0.8L294.91 0.8ZM301.51-26.5L308.31-26.5 308.31 0 301.51 0 301.51-26.5ZM304.91-40Q306.66-40 307.76-38.85 308.86-37.7 308.86-35.95L308.86-35.95Q308.86-34.25 307.76-33.13 306.66-32 304.91-32L304.91-32Q303.11-32 302.01-33.13 300.91-34.25 300.91-35.95L300.91-35.95Q300.91-37.7 302.01-38.85 303.11-40 304.91-40L304.91-40ZM325.06-5.4L327.36-1.2Q326.11-0.2 324.53 0.3 322.96 0.8 321.36 0.8L321.36 0.8Q317.71 0.8 315.86-1.28 314.01-3.35 314.01-6.9L314.01-6.9 314.01-21.65 311.06-21.65 311.06-26.5 314.01-26.5 314.01-32.3 320.81-33.15 320.81-26.5 325.76-26.5 325.11-21.65 320.81-21.65 320.81-6.95Q320.81-4.65 322.71-4.65L322.71-4.65Q323.36-4.65 323.86-4.83 324.36-5 325.06-5.4L325.06-5.4ZM348.86-26.5L341.91 0.05Q339.31 10.1 329.46 10.95L329.46 10.95 328.71 6.2Q331.86 5.65 333.46 4.28 335.06 2.9 335.96 0L335.96 0 333.41 0 326.86-26.5 333.76-26.5 337.76-4.45 342.11-26.5 348.86-26.5ZM387.8-34.6L389.95 0 383.25 0 382.8-14.2 382.7-17.25Q382.65-18.8 382.6-20.85 382.55-22.9 382.55-25.35L382.55-25.35 382.6-28.2 378.3-3.75 371.65-3.75 367.1-28.2Q367.25-24.9 367.25-21.65L367.25-21.65Q367.25-17.95 367.1-14.05L367.1-14.05 366.65 0 360.05 0 362.2-34.6 370.95-34.6 375.1-10.55 378.9-34.6 387.8-34.6ZM411.75-6.7Q411.75-5.4 412.07-4.8 412.4-4.2 413.2-3.8L413.2-3.8 411.8 0.7Q409.7 0.45 408.4-0.38 407.1-1.2 406.45-2.95L406.45-2.95Q404.15 0.8 399.95 0.8L399.95 0.8Q396.65 0.8 394.7-1.45 392.75-3.7 392.75-7.4L392.75-7.4Q392.75-11.75 395.42-14.03 398.1-16.3 403.25-16.3L403.25-16.3 405.1-16.3 405.1-17.9Q405.1-20.35 404.3-21.33 403.5-22.3 401.55-22.3L401.55-22.3Q399.3-22.3 395.8-21L395.8-21 394.25-25.35Q396.3-26.3 398.55-26.8 400.8-27.3 402.8-27.3L402.8-27.3Q411.75-27.3 411.75-18.25L411.75-18.25 411.75-6.7ZM401.9-4.1Q404-4.1 405.1-7L405.1-7 405.1-12.35 403.9-12.35Q401.6-12.35 400.52-11.28 399.45-10.2 399.45-7.95L399.45-7.95Q399.45-6.05 400.1-5.08 400.75-4.1 401.9-4.1L401.9-4.1ZM429.9-27.3Q432.75-27.3 434.4-25.25 436.05-23.2 436.05-19.75L436.05-19.75 436.05 0 429.25 0 429.25-19Q429.25-20.65 428.8-21.35 428.35-22.05 427.45-22.05L427.45-22.05Q425.65-22.05 423.75-18.45L423.75-18.45 423.75 0 416.95 0 416.95-26.5 422.9-26.5 423.4-23.15Q424.7-25.2 426.25-26.25 427.8-27.3 429.9-27.3L429.9-27.3ZM458.54-6.7Q458.54-5.4 458.87-4.8 459.19-4.2 459.99-3.8L459.99-3.8 458.59 0.7Q456.49 0.45 455.19-0.38 453.89-1.2 453.24-2.95L453.24-2.95Q450.94 0.8 446.74 0.8L446.74 0.8Q443.44 0.8 441.49-1.45 439.54-3.7 439.54-7.4L439.54-7.4Q439.54-11.75 442.22-14.03 444.89-16.3 450.04-16.3L450.04-16.3 451.89-16.3 451.89-17.9Q451.89-20.35 451.09-21.33 450.29-22.3 448.34-22.3L448.34-22.3Q446.09-22.3 442.59-21L442.59-21 441.04-25.35Q443.09-26.3 445.34-26.8 447.59-27.3 449.59-27.3L449.59-27.3Q458.54-27.3 458.54-18.25L458.54-18.25 458.54-6.7ZM448.69-4.1Q450.79-4.1 451.89-7L451.89-7 451.89-12.35 450.69-12.35Q448.39-12.35 447.32-11.28 446.24-10.2 446.24-7.95L446.24-7.95Q446.24-6.05 446.89-5.08 447.54-4.1 448.69-4.1L448.69-4.1ZM482.14-30.15L483.84-25.1Q481.89-24.1 477.64-24.1L477.64-24.1Q479.79-23.05 480.82-21.43 481.84-19.8 481.84-17.3L481.84-17.3Q481.84-13.3 479.34-10.85 476.84-8.4 472.49-8.4L472.49-8.4Q471.34-8.4 470.04-8.75L470.04-8.75Q469.19-8.15 469.19-6.9L469.19-6.9Q469.19-5.95 469.72-5.48 470.24-5 471.74-5L471.74-5 474.44-5Q478.59-5 480.99-2.93 483.39-0.85 483.39 2.45L483.39 2.45Q483.39 6.3 480.39 8.63 477.39 10.95 471.89 10.95L471.89 10.95Q465.94 10.95 463.62 8.83 461.29 6.7 461.29 2.6L461.29 2.6 467.39 2.6Q467.39 4.6 468.32 5.48 469.24 6.35 471.94 6.35L471.94 6.35Q474.44 6.35 475.52 5.45 476.59 4.55 476.59 2.9L476.59 2.9Q476.59 1.3 475.72 0.55 474.84-0.2 472.99-0.2L472.99-0.2 470.99-0.2Q467.14-0.2 465.37-1.6 463.59-3 463.59-5.35L463.59-5.35Q463.59-8 466.34-10.15L466.34-10.15Q464.24-11.45 463.29-13.25 462.34-15.05 462.34-17.7L462.34-17.7Q462.34-22.1 464.99-24.65 467.64-27.2 472.19-27.2L472.19-27.2Q475.44-27.2 477.54-27.95 479.64-28.7 482.14-30.15L482.14-30.15ZM472.24-22.7Q470.64-22.7 469.82-21.55 468.99-20.4 468.99-17.8L468.99-17.8Q468.99-15.35 469.82-14.08 470.64-12.8 472.19-12.8L472.19-12.8Q473.79-12.8 474.57-13.95 475.34-15.1 475.34-17.9L475.34-17.9Q475.34-20.4 474.59-21.55 473.84-22.7 472.24-22.7L472.24-22.7ZM505.74-13.85Q505.74-13.3 505.59-11.2L505.59-11.2 492.04-11.2Q492.24-7.3 493.41-5.8 494.59-4.3 496.69-4.3L496.69-4.3Q498.14-4.3 499.39-4.83 500.64-5.35 502.09-6.45L502.09-6.45 504.89-2.7Q501.29 0.8 496.24 0.8L496.24 0.8Q490.89 0.8 488.04-2.85 485.19-6.5 485.19-13.05L485.19-13.05Q485.19-19.6 487.89-23.45 490.59-27.3 495.64-27.3L495.64-27.3Q500.39-27.3 503.06-23.88 505.74-20.45 505.74-13.85L505.74-13.85ZM499.14-15.4L499.14-15.8Q499.14-19.4 498.34-21.03 497.54-22.65 495.69-22.65L495.69-22.65Q493.99-22.65 493.11-21.05 492.24-19.45 492.04-15.4L492.04-15.4 499.14-15.4ZM533.74-27.3Q536.34-27.3 537.94-25.23 539.54-23.15 539.54-19.75L539.54-19.75 539.54 0 532.89 0 532.89-19.05Q532.89-20.7 532.46-21.4 532.04-22.1 531.24-22.1L531.24-22.1Q529.49-22.1 527.89-18.8L527.89-18.8 527.89 0 521.29 0 521.29-19.05Q521.29-22.1 519.59-22.1L519.59-22.1Q517.79-22.1 516.19-18.8L516.19-18.8 516.19 0 509.54 0 509.54-26.5 515.49-26.5 515.89-23.15Q517.14-25.15 518.66-26.23 520.19-27.3 522.14-27.3L522.14-27.3Q523.99-27.3 525.31-26.18 526.64-25.05 527.34-22.95L527.34-22.95Q529.99-27.3 533.74-27.3L533.74-27.3ZM563.98-13.85Q563.98-13.3 563.83-11.2L563.83-11.2 550.28-11.2Q550.48-7.3 551.66-5.8 552.83-4.3 554.93-4.3L554.93-4.3Q556.38-4.3 557.63-4.83 558.88-5.35 560.33-6.45L560.33-6.45 563.13-2.7Q559.53 0.8 554.48 0.8L554.48 0.8Q549.13 0.8 546.28-2.85 543.43-6.5 543.43-13.05L543.43-13.05Q543.43-19.6 546.13-23.45 548.83-27.3 553.88-27.3L553.88-27.3Q558.63-27.3 561.31-23.88 563.98-20.45 563.98-13.85L563.98-13.85ZM557.38-15.4L557.38-15.8Q557.38-19.4 556.58-21.03 555.78-22.65 553.93-22.65L553.93-22.65Q552.23-22.65 551.36-21.05 550.48-19.45 550.28-15.4L550.28-15.4 557.38-15.4ZM580.73-27.3Q583.58-27.3 585.23-25.25 586.88-23.2 586.88-19.75L586.88-19.75 586.88 0 580.08 0 580.08-19Q580.08-20.65 579.63-21.35 579.18-22.05 578.28-22.05L578.28-22.05Q576.48-22.05 574.58-18.45L574.58-18.45 574.58 0 567.78 0 567.78-26.5 573.73-26.5 574.23-23.15Q575.53-25.2 577.08-26.25 578.63-27.3 580.73-27.3L580.73-27.3ZM603.43-5.4L605.73-1.2Q604.48-0.2 602.9 0.3 601.33 0.8 599.73 0.8L599.73 0.8Q596.08 0.8 594.23-1.28 592.38-3.35 592.38-6.9L592.38-6.9 592.38-21.65 589.43-21.65 589.43-26.5 592.38-26.5 592.38-32.3 599.18-33.15 599.18-26.5 604.13-26.5 603.48-21.65 599.18-21.65 599.18-6.95Q599.18-4.65 601.08-4.65L601.08-4.65Q601.73-4.65 602.23-4.83 602.73-5 603.43-5.4L603.43-5.4ZM626.82-35.4Q629.92-35.4 632.32-34.3 634.72-33.2 636.67-31.05L636.67-31.05 633.47-27.35Q630.57-30.1 627.47-30.1L627.47-30.1Q625.67-30.1 624.62-29.03 623.57-27.95 623.57-26.15L623.57-26.15Q623.57-24.4 624.72-23.25 625.87-22.1 629.07-20.8L629.07-20.8Q631.97-19.6 633.75-18.25 635.52-16.9 636.5-14.9 637.47-12.9 637.47-9.95L637.47-9.95Q637.47-6.9 636.07-4.45 634.67-2 632.07-0.6 629.47 0.8 626.02 0.8L626.02 0.8Q622.47 0.8 619.85-0.48 617.22-1.75 615.12-4L615.12-4 618.57-7.8Q620.32-6.2 622-5.38 623.67-4.55 625.57-4.55L625.57-4.55Q627.77-4.55 628.95-5.88 630.12-7.2 630.12-9.45L630.12-9.45Q630.12-11.5 629.02-12.78 627.92-14.05 625.02-15.25L625.02-15.25Q620.32-17.2 618.32-19.6 616.32-22 616.32-25.65L616.32-25.65Q616.32-28.5 617.67-30.7 619.02-32.9 621.42-34.15 623.82-35.4 626.82-35.4L626.82-35.4ZM660.52-13.85Q660.52-13.3 660.37-11.2L660.37-11.2 646.82-11.2Q647.02-7.3 648.19-5.8 649.37-4.3 651.47-4.3L651.47-4.3Q652.92-4.3 654.17-4.83 655.42-5.35 656.87-6.45L656.87-6.45 659.67-2.7Q656.07 0.8 651.02 0.8L651.02 0.8Q645.67 0.8 642.82-2.85 639.97-6.5 639.97-13.05L639.97-13.05Q639.97-19.6 642.67-23.45 645.37-27.3 650.42-27.3L650.42-27.3Q655.17-27.3 657.84-23.88 660.52-20.45 660.52-13.85L660.52-13.85ZM653.92-15.4L653.92-15.8Q653.92-19.4 653.12-21.03 652.32-22.65 650.47-22.65L650.47-22.65Q648.77-22.65 647.89-21.05 647.02-19.45 646.82-15.4L646.82-15.4 653.92-15.4ZM676.57-27.2Q677.72-27.2 678.62-26.85L678.62-26.85 677.52-20.3Q676.62-20.6 675.67-20.6L675.67-20.6Q673.77-20.6 672.72-19.03 671.67-17.45 671.12-14.35L671.12-14.35 671.12 0 664.32 0 664.32-26.5 670.27-26.5 670.77-22Q672.62-27.2 676.57-27.2L676.57-27.2ZM693.46-26.5L700.11-26.5 693.36 0 685.31 0 678.36-26.5 685.36-26.5 689.36-5.3 693.46-26.5ZM702.56-26.5L709.36-26.5 709.36 0 702.56 0 702.56-26.5ZM705.96-40Q707.71-40 708.81-38.85 709.91-37.7 709.91-35.95L709.91-35.95Q709.91-34.25 708.81-33.13 707.71-32 705.96-32L705.96-32Q704.16-32 703.06-33.13 701.96-34.25 701.96-35.95L701.96-35.95Q701.96-37.7 703.06-38.85 704.16-40 705.96-40L705.96-40ZM724.46-27.3Q728.71-27.3 731.86-24.15L731.86-24.15 729.01-20.35Q726.86-22.05 724.91-22.05L724.91-22.05Q722.76-22.05 721.68-20.03 720.61-18 720.61-13.1L720.61-13.1Q720.61-8.35 721.71-6.48 722.81-4.6 724.91-4.6L724.91-4.6Q725.96-4.6 726.86-4.98 727.76-5.35 728.86-6.2L728.86-6.2 731.86-2.3Q728.66 0.8 724.51 0.8L724.51 0.8Q719.26 0.8 716.36-2.7 713.46-6.2 713.46-13.05L713.46-13.05Q713.46-17.45 714.81-20.68 716.16-23.9 718.63-25.6 721.11-27.3 724.46-27.3L724.46-27.3ZM753.96-13.85Q753.96-13.3 753.81-11.2L753.81-11.2 740.26-11.2Q740.46-7.3 741.63-5.8 742.81-4.3 744.91-4.3L744.91-4.3Q746.36-4.3 747.61-4.83 748.86-5.35 750.31-6.45L750.31-6.45 753.11-2.7Q749.51 0.8 744.46 0.8L744.46 0.8Q739.11 0.8 736.26-2.85 733.41-6.5 733.41-13.05L733.41-13.05Q733.41-19.6 736.11-23.45 738.81-27.3 743.86-27.3L743.86-27.3Q748.61-27.3 751.28-23.88 753.96-20.45 753.96-13.85L753.96-13.85ZM747.36-15.4L747.36-15.8Q747.36-19.4 746.56-21.03 745.76-22.65 743.91-22.65L743.91-22.65Q742.21-22.65 741.33-21.05 740.46-19.45 740.26-15.4L740.26-15.4 747.36-15.4ZM765.45-27.3Q767.9-27.3 769.98-26.48 772.05-25.65 773.6-24.1L773.6-24.1 771.05-20.4Q768.35-22.35 766-22.35L766-22.35Q764.65-22.35 763.9-21.68 763.15-21 763.15-19.75L763.15-19.75Q763.15-18.9 763.53-18.32 763.9-17.75 764.85-17.18 765.8-16.6 767.75-15.8L767.75-15.8Q771.15-14.45 772.75-12.63 774.35-10.8 774.35-7.7L774.35-7.7Q774.35-3.75 771.6-1.48 768.85 0.8 764.55 0.8L764.55 0.8Q761.8 0.8 759.45-0.2 757.1-1.2 755.4-3L755.4-3 758.6-6.55Q761.6-4.1 764.25-4.1L764.25-4.1Q765.75-4.1 766.6-4.9 767.45-5.7 767.45-7.1L767.45-7.1Q767.45-8.65 766.55-9.53 765.65-10.4 762.85-11.5L762.85-11.5Q759.4-12.9 757.93-14.7 756.45-16.5 756.45-19.3L756.45-19.3Q756.45-21.55 757.53-23.38 758.6-25.2 760.65-26.25 762.7-27.3 765.45-27.3L765.45-27.3Z" opacity="1" transform="matrix(1,0,0,1,0,0)" fill="black" class="slogan-text-1" id="SvgjsPath3796"></path></svg></g></svg></g></svg></g></svg></g><g></g></svg></g></svg></g></svg></g></svg></g><defs><mask></mask></defs></svg><rect width="342.85155851775386" height="342.85155851775386" fill="black" stroke="none" visibility="hidden"></rect></g></mask><linearGradient x1="0.054" x2="0.941" y1="0.5" y2="0.5" id="0cf187ed-c8b9-4597-bcf0-d710dd55ecf4"><stop stop-color="#9c7945" offset="0"></stop><stop stop-color="#faf3aa" offset="0.498"></stop><stop stop-color="#9c7945" offset="1"></stop></linearGradient></svg><rect width="342.85155851775386" height="342.85155851775386" fill="none" stroke="none" visibility="hidden"></rect></g></svg></g></svg>